<svg xmlns="http://www.w3.org/2000/svg" xmlns:xlink="http://www.w3.org/1999/xlink" width="66.949" height="65.481" viewBox="0 0 66.949 65.481">
  <defs>
    <linearGradient id="linear-gradient" x1="0.5" y1="1" x2="0.5" gradientUnits="objectBoundingBox">
      <stop offset="0" stop-color="#e9a254"/>
      <stop offset="1" stop-color="#f4bb79"/>
    </linearGradient>
    <linearGradient id="linear-gradient-3" y1="0.5" x2="1" y2="0.5" gradientUnits="objectBoundingBox">
      <stop offset="0" stop-color="#fbcc88"/>
      <stop offset="1" stop-color="#ffe5c3"/>
    </linearGradient>
    <linearGradient id="linear-gradient-4" x1="0.002" y1="0.503" y2="0.503" xlink:href="#linear-gradient-3"/>
  </defs>
  <g id="Group_161" data-name="Group 161" transform="translate(-701.148 -561.823)">
    <g id="Banana" transform="translate(701.148 561.823)">
      <path id="Path_1173" data-name="Path 1173" d="M26.138,63.008c17.851,10.713,33.035-2.667,33.035-2.667,1.782-1.782,5.4,0,7.138-1.782s1.782-3.575,0-5.4-3.477.886-8.035.886c-3.575,0-3.575-1.782-7.138-3.564S38.633,46.939,31.495,39.822c-6.393-6.415-9.438-19.654-10.713-28.6-.9-6.242-5.4-12.495-9.816-8.035S2.931,16.583,5.879,31.367C8.32,43.451,15.393,56.55,26.138,63.008Z" transform="translate(-0.695 -1.683)" fill="url(#linear-gradient)"/>
      <path id="Path_1174" data-name="Path 1174" d="M26.138,63.008c17.851,10.713,33.035-2.667,33.035-2.667,1.782-1.782,5.4,0,7.138-1.782s1.782-3.575,0-5.4-3.477.886-8.035.886c-3.575,0-3.575-1.782-7.138-3.564S38.633,46.939,31.495,39.822c-6.393-6.415-9.438-19.654-10.713-28.6-.9-6.242-5.4-12.495-9.816-8.035S2.931,16.583,5.879,31.367C8.32,43.451,15.393,56.55,26.138,63.008Z" transform="translate(-0.695 -1.683)" fill="url(#linear-gradient)"/>
      <path id="Path_1175" data-name="Path 1175" d="M66.311,57.164c-1.782,1.782-5.4,0-7.138,1.782,0,0-15.184,13.391-33.035,2.678a40.443,40.443,0,0,1-13.51-14.158L8.395,38.676A53.8,53.8,0,0,1,4.82,19,55.259,55.259,0,0,0,8.395,36.516l4.233,8.791a40.443,40.443,0,0,0,13.51,14.158C43.989,70.177,59.172,56.8,59.172,56.8c2.16-2.16,6.609.864,8.251-3.38C67.93,54.637,67.563,55.912,66.311,57.164Z" transform="translate(-0.695 -0.299)" fill="#dd8b37"/>
      <path id="Path_1176" data-name="Path 1176" d="M25.437,29.81a.907.907,0,0,0-.194.162,13.391,13.391,0,0,0-3.564,10.713h0c-2.711-2.711-8.337.065-9.05,8.164-4.644-9.654-4.136-8.423-4.978-10.875C3.936,26.959,2.748,11.408,10.967,3.19c4.46-4.406,8.92,1.793,9.816,8.035C22.662,24.529,25.437,29.022,25.437,29.81Z" transform="translate(-0.696 -1.681)" fill="#fff2e3"/>
      <path id="Path_1177" data-name="Path 1177" d="M21.336,38.06h0c-2.732-2.462-8.186.356-8.888,8.315C7.8,36.721,8.312,37.952,7.47,35.5c4.622-3.24,9.557-3.585,14.039-.14C21.228,37.79,21.606,37.769,21.336,38.06Z" transform="translate(-0.483 0.813)" fill="#ffd39f"/>
      <path id="Path_1178" data-name="Path 1178" d="M24.2,28.256a13.391,13.391,0,0,0-3.564,10.713,3.348,3.348,0,0,0-2.451-1.026A16.436,16.436,0,0,1,22.665,23.17C24.349,28.753,24.652,27.8,24.2,28.256Z" transform="translate(0.349 0.034)" fill="#ffd39f"/>
      <path id="Path_1179" data-name="Path 1179" d="M12.879,46.184a19.622,19.622,0,0,0,5.454,14.978,1.382,1.382,0,0,1-1.814,2.073c-4.827-3.5-10.054-6.793-12.4-9.136-6.242-6.242-1.782-10.713,1.793-14.277,5.13-5.13,10.7-6.976,15.9-1.955C19.024,35.418,13.624,38.247,12.879,46.184Z" transform="translate(-1 0.972)" fill="url(#linear-gradient-3)"/>
      <path id="Path_1180" data-name="Path 1180" d="M48.146,34.925c-.875,2.646-19.125-10.356-23.909-6.48h0a.907.907,0,0,0-.194.162c-4.46,4.471-3.564,10.713-3.564,10.713a14.044,14.044,0,0,1,3.564-14.277c6.253-6.253,9.827-9.827,15.184-4.471S49.042,32.247,48.146,34.925Z" transform="translate(0.505 -0.382)" fill="url(#linear-gradient-4)"/>
      <path id="Path_1181" data-name="Path 1181" d="M51.739,55.869A39.806,39.806,0,0,1,31.22,50.653a1.08,1.08,0,0,1,1.08-1.847,37.657,37.657,0,0,0,19.439,4.9,1.08,1.08,0,0,1,0,2.16Z" transform="translate(1.382 2.076)" fill="#dd8b37"/>
      <path id="Path_1182" data-name="Path 1182" d="M25.154,45.763a36.793,36.793,0,0,1-5.616-7.4,1.082,1.082,0,0,1,1.933-.972,35.443,35.443,0,0,0,5.248,6.89,1.08,1.08,0,0,1-1.566,1.479Z" transform="translate(0.472 1.123)" fill="#dd8b37"/>
    </g>
  </g>
</svg>
