<svg xmlns="http://www.w3.org/2000/svg" width="97.647" height="55.758" viewBox="0 0 97.647 55.758">
  <g id="Group_160" data-name="Group 160" transform="translate(-445.825 -566.252)">
    <g id="Group_159" data-name="Group 159">
      <path id="Path_1165" data-name="Path 1165" d="M762.806,476.512c.088.085.181.173.283.258a3.839,3.839,0,0,0,.3.252,7.519,7.519,0,0,0,1.774,1.049,4.667,4.667,0,0,0,3.182.2,4.744,4.744,0,0,0,2.514-1.939,5.586,5.586,0,0,0,.935-3.081,5.292,5.292,0,0,0-.808-2.763,5.7,5.7,0,0,0-2.134-2,7.043,7.043,0,0,0,2.148.422,5.429,5.429,0,0,0,2.749-.618,5.792,5.792,0,0,0,2.573-2.806,6.573,6.573,0,0,0,.405-4,7.3,7.3,0,0,0-.83-1.819,5.584,5.584,0,0,0-2.692-2.3,5.767,5.767,0,0,0-4.155.088,7.289,7.289,0,0,0-3.534,3,6.058,6.058,0,0,0-1.241-3.795,5.317,5.317,0,0,0-3.166-2.012,5.252,5.252,0,0,0-2.948.283,5.351,5.351,0,0,0-3.373,5.586l-.119-.235-.119-.238a5.3,5.3,0,0,0-7.117-2.364h0a5.3,5.3,0,0,0-2.361,7.119l1.19,2.375,1.193,2.375-3.4,1.7-3.4,1.7,1.714,3.418,1.7,3.418,3.4-1.7,3.4-1.7,1.216,2.381,1.193,2.375a5.3,5.3,0,0,0,7.116,2.361h0A5.3,5.3,0,0,0,762.806,476.512Z" transform="translate(-233.404 111.686)" fill="#bab653"/>
      <path id="Path_1166" data-name="Path 1166" d="M529.953,546.593a4.353,4.353,0,0,1-3.251-.127,4.685,4.685,0,0,1-2.59-5.668,4.3,4.3,0,0,1,2.046-2.517l23.563-15.466,23.563-15.472a10.645,10.645,0,0,1,8.8-1.417,11.532,11.532,0,0,1,7.145,5.762h0a11.542,11.542,0,0,1,.774,9.183,10.634,10.634,0,0,1-6.153,6.5L556.9,536.98Z" transform="translate(-78.079 75.162)" fill="#f98638"/>
      <path id="Path_1167" data-name="Path 1167" d="M703.377,564.639a.344.344,0,0,1-.187-.054.352.352,0,0,1-.133-.147l-2.248-4.736-2.247-4.733a.347.347,0,0,1,.451-.473.334.334,0,0,1,.2.181l2.25,4.733,2.247,4.736a.351.351,0,0,1-.167.471l-.076.026Z" transform="translate(-203.203 32.904)" fill="#2b3d0a"/>
      <path id="Path_1168" data-name="Path 1168" d="M661.021,582.244a.37.37,0,0,1-.187-.054.346.346,0,0,1-.133-.15l-1.956-4.115-1.953-4.118a.342.342,0,0,1,0-.283.36.36,0,0,1,.181-.2.352.352,0,0,1,.471.167l1.956,4.118,1.956,4.115a.354.354,0,0,1-.167.473l-.076.025Z" transform="translate(-172.78 20.067)" fill="#2b3d0a"/>
      <path id="Path_1169" data-name="Path 1169" d="M619.935,597.347a.367.367,0,0,1-.2-.057.376.376,0,0,1-.133-.162l-1.811-4.4-1.811-4.4a.349.349,0,0,1,0-.283.357.357,0,0,1,.19-.19.363.363,0,0,1,.283,0,.357.357,0,0,1,.193.193l1.811,4.4,1.811,4.4a.347.347,0,0,1,0,.283.356.356,0,0,1-.19.19.3.3,0,0,1-.068.02A.285.285,0,0,1,619.935,597.347Z" transform="translate(-141.121 9.729)" fill="#2b3d0a"/>
    </g>
    <path id="Path_1170" data-name="Path 1170" d="M833.015,501.112h-.127l-1.2-.383-1.2-.385a.414.414,0,0,1-.247-.21.427.427,0,0,1,.507-.606l1.193.383,1.2.383a.425.425,0,0,1,.128.751A.428.428,0,0,1,833.015,501.112Z" transform="translate(-297.569 79.482)" fill="#666538"/>
    <path id="Path_1171" data-name="Path 1171" d="M814.553,525.611a.432.432,0,0,1-.213-.057.455.455,0,0,1-.159-.162l-.626-1.133-.629-1.134a.431.431,0,0,1-.037-.323.419.419,0,0,1,.771-.088l.626,1.134.626,1.134a.428.428,0,0,1-.164.567.51.51,0,0,1-.1.04A.444.444,0,0,1,814.553,525.611Z" transform="translate(-285.151 63.007)" fill="#666538"/>
    <path id="Path_1172" data-name="Path 1172" d="M763.919,520.05l-1.139-2.281-1.139-2.279-1.4,3.554-1.4,3.554,2.539-1.273Z" transform="translate(-246.432 68.028)" fill="#666538"/>
  </g>
</svg>
