<svg xmlns="http://www.w3.org/2000/svg" width="156.495" height="307.258" viewBox="0 0 156.495 307.258">
  <g id="DrawKit-cooking-kitchen-food-vector-illustrations-07" transform="translate(1886.83 2062.164)">
    <g id="Chars" transform="translate(-1885.791 -2061.161)">
      <g id="COOK" transform="translate(0 0)">
        <g id="LEGS" transform="translate(59.092 117.7)">
          <g id="SHOES" transform="translate(0 174.204)">
            <path id="Path_1379" data-name="Path 1379" d="M653.4,1213.081c0,3.874,2.892,5.291,2.89,12.167H625.238s-.514-7.1,6.982-7.311c6.445-.188,10.88-4.257,10.81-4.856S653.4,1213.081,653.4,1213.081Z" transform="translate(-563.602 -1212.814)" fill="#1c0e0c"/>
            <path id="Path_1380" data-name="Path 1380" d="M.617,0H30.626a.617.617,0,0,1,.617.617V1.622H0V.617A.617.617,0,0,1,.617,0Z" transform="translate(92.692 13.351) rotate(180)" fill="#f7f3ef" stroke="#070707" stroke-linecap="round" stroke-linejoin="round" stroke-width="2"/>
            <path id="Path_1381" data-name="Path 1381" d="M414.379,1213.081c.015,3.874,2.895,5.291,2.892,12.167H386.217s-.53-7.1,6.98-7.311c6.447-.188,10.882-4.257,10.81-4.856S414.379,1213.081,414.379,1213.081Z" transform="translate(-386.026 -1212.814)" fill="#1c0e0c"/>
            <path id="Path_1382" data-name="Path 1382" d="M.617,0H30.628a.617.617,0,0,1,.617.617V1.622H0V.617A.617.617,0,0,1,.617,0Z" transform="translate(31.245 13.351) rotate(180)" fill="#f7f3ef" stroke="#070707" stroke-linecap="round" stroke-linejoin="round" stroke-width="2"/>
          </g>
          <path id="PANTS" d="M443.077,535.244l60.7-.064c5.054,28.733-4.774,68.349-5.142,73.215-1.028,14.139,5.725,22.98,9.2,37.276,5.656,23.33,4.249,54.284.067,66.017l-16.453.111c-.478-4.044-19.959-84.321-20.913-94.031l-5.7-27.338-5.969,24.618c-4.712,14.556-2.622,14.515-1.951,29.214,1.152,25.294-3.437,56.608-10.265,67.326L428,711.3c.028-43.865-1.591-86.206-1.044-94.44C427.082,611.717,433.434,569.77,443.077,535.244Z" transform="translate(-416.212 -535.18)" fill="#f7f3ef" stroke="#070707" stroke-linecap="round" stroke-linejoin="round" stroke-width="2"/>
          <path id="SHADOW" d="M561.916,691.729c-.928-3.908-2.992-19.538-4.4-20.2" transform="translate(-513.298 -636.477)" fill="#f7f3ef" stroke="#070707" stroke-linecap="round" stroke-linejoin="round" stroke-width="2"/>
        </g>
        <g id="SHIRT" transform="translate(55.371 32.734)">
          <path id="Path_1383" data-name="Path 1383" d="M465.471,312.5s-.877-61.7-13.854-85.437c-7.553-13.826-36.027-19.872-39.87-20.121-5.036-.324-13.977-.118-28.566,4.7-12.952,4.275-14.764,16-9.136,29.89s25.81,49.721,25.81,49.721c-.823,6.268-4.5,22.2-4.5,22.2S435.272,316.5,465.471,312.5Z" transform="translate(-371.028 -206.284)" fill="#efaf00" stroke="#000" stroke-linecap="round" stroke-linejoin="round" stroke-width="2"/>
          <path id="Path_1384" data-name="Path 1384" d="M508.627,206.3s1.1,10.471-11.913,17.808l-2.314-5.6,7.437-13.833Z" transform="translate(-462.684 -204.67)" fill="#1c0e0c"/>
          <path id="Path_1385" data-name="Path 1385" d="M401.86,219.921s4.183,14.592,16.4,15.576l-.514-4.859-6.8-15.1Z" transform="translate(-393.934 -212.746)" fill="#1c0e0c"/>
          <path id="Path_1386" data-name="Path 1386" d="M446.637,263.93l3.45,8.244a3.982,3.982,0,0,1-3.838,5.039H433.814a4.057,4.057,0,0,0-3.722,5.671l26.127,57.829c.612,1.329-1.167,15.916-1.167,15.916H475.71" transform="translate(-414.659 -248.696)" fill="#efaf00" stroke="#000" stroke-linecap="round" stroke-linejoin="round" stroke-width="2"/>
          <circle id="Ellipse_221" data-name="Ellipse 221" cx="1.964" cy="1.964" r="1.964" transform="translate(21.932 36.767)" fill="#f7f3ef" stroke="#070707" stroke-linecap="round" stroke-linejoin="round" stroke-width="2"/>
          <circle id="Ellipse_222" data-name="Ellipse 222" cx="1.964" cy="1.964" r="1.964" transform="translate(32.534 36.767)" fill="#f7f3ef" stroke="#070707" stroke-linecap="round" stroke-linejoin="round" stroke-width="2"/>
          <circle id="Ellipse_223" data-name="Ellipse 223" cx="1.964" cy="1.964" r="1.964" transform="translate(27.297 50.377)" fill="#f7f3ef" stroke="#070707" stroke-linecap="round" stroke-linejoin="round" stroke-width="2"/>
          <circle id="Ellipse_224" data-name="Ellipse 224" cx="1.964" cy="1.964" r="1.964" transform="translate(37.899 50.377)" fill="#f7f3ef" stroke="#070707" stroke-linecap="round" stroke-linejoin="round" stroke-width="2"/>
          <circle id="Ellipse_225" data-name="Ellipse 225" cx="1.923" cy="1.923" r="1.923" transform="translate(33.038 64.223)" fill="#f7f3ef" stroke="#070707" stroke-linecap="round" stroke-linejoin="round" stroke-width="2"/>
          <circle id="Ellipse_226" data-name="Ellipse 226" cx="1.923" cy="1.923" r="1.923" transform="translate(42.663 64.097)" fill="#f7f3ef" stroke="#070707" stroke-linecap="round" stroke-linejoin="round" stroke-width="2"/>
        </g>
        <g id="LEFT_HAND" data-name="LEFT HAND" transform="translate(0 39.909)">
          <path id="HAND" d="M268.409,232.58c-5.37,2.057-13.782,6.6-15.98,13.083s-7.759,24.2-7.759,24.2-9.211-8.568-10.949-11.211c0,0-.47,5.334-11.491,5.568,0,0,6.036,42.065,28.536,43.071,8.89.4,17.885-11.568,19.15-33.006Z" transform="translate(-205.111 -232.58)" fill="#efaf00" stroke="#000" stroke-linecap="round" stroke-linejoin="round" stroke-width="2"/>
          <path id="LINE" d="M307.48,373a89.688,89.688,0,0,1,10.2,16.63" transform="translate(-268.445 -336.901)" fill="#f7f3ef" stroke="#070707" stroke-linecap="round" stroke-linejoin="round" stroke-width="2"/>
          <g id="ARM" transform="translate(1.288 13.551)">
            <path id="Path_1387" data-name="Path 1387" d="M199.933,298.359s-6.034-10.725-10.772-12.97c-1.542-.738-9.823,2.949-10.54,3.8s-2.491,7.643-2.491,7.643,2.794.746,3.823-1.267c1.188-2.314,3.234-4.72,5.933-3.969,1.542.432,4.82,4.3,3.406,5.237s-3.568-1.8-5.6-2.275a4,4,0,0,0-3.514,1.028,10.005,10.005,0,0,1,4.147,3.99,5.825,5.825,0,0,0,6.851,3.643A14.811,14.811,0,0,0,199.933,298.359Z" transform="translate(-172.15 -285.293)" fill="#c48270" stroke="#0f0f0f" stroke-linecap="round" stroke-linejoin="round" stroke-width="2"/>
            <path id="Path_1388" data-name="Path 1388" d="M167.115,300.47a26.961,26.961,0,0,1-6.465,4.149s.943,2.684,4.707.836Z" transform="translate(-160.65 -296.568)" fill="#1c0e0c"/>
          </g>
          <path id="CUFF" d="M221.75,341.024s8.226-.116,12.083-4.884l3.211,3.72s-4.2,6.617-14.376,6.339Z" transform="translate(-204.755 -309.517)" fill="#efaf00" stroke="#000" stroke-linecap="round" stroke-linejoin="round" stroke-width="2"/>
          <g id="SPICE" transform="translate(0 26.329)">
            <path id="Path_1389" data-name="Path 1389" d="M196.482,343.083a.674.674,0,1,0,.038-.514A.674.674,0,0,0,196.482,343.083Z" transform="translate(-185.957 -340.347)" fill="#f7f3ef" stroke="#070707" stroke-linecap="round" stroke-linejoin="round" stroke-width="2"/>
            <path id="Path_1390" data-name="Path 1390" d="M170.49,370.146a.54.54,0,1,0,.03-.414A.54.54,0,0,0,170.49,370.146Z" transform="translate(-166.652 -360.582)" fill="#f7f3ef" stroke="#070707" stroke-linecap="round" stroke-linejoin="round" stroke-width="2"/>
            <path id="Path_1391" data-name="Path 1391" d="M180.133,423.974a.676.676,0,1,0,.429-.854A.676.676,0,0,0,180.133,423.974Z" transform="translate(-173.812 -400.44)" fill="#f7f3ef" stroke="#070707" stroke-linecap="round" stroke-linejoin="round" stroke-width="2"/>
            <path id="Path_1392" data-name="Path 1392" d="M202,430.48a.743.743,0,1,0,.473-.938A.743.743,0,0,0,202,430.48Z" transform="translate(-190.055 -405.209)" fill="#f7f3ef" stroke="#070707" stroke-linecap="round" stroke-linejoin="round" stroke-width="2"/>
            <path id="Path_1393" data-name="Path 1393" d="M187.378,471.062a.74.74,0,1,0-.345-.46.743.743,0,0,0,.345.46Z" transform="translate(-178.946 -435.055)" fill="#f7f3ef" stroke="#070707" stroke-linecap="round" stroke-linejoin="round" stroke-width="2"/>
            <path id="Path_1394" data-name="Path 1394" d="M176.1,456.012a.812.812,0,1,0-.621-.044.81.81,0,0,0,.621.044Z" transform="translate(-170.046 -423.73)" fill="#f7f3ef" stroke="#070707" stroke-linecap="round" stroke-linejoin="round" stroke-width="2"/>
            <path id="Path_1395" data-name="Path 1395" d="M200.551,401.948a.743.743,0,1,0,.47-.938.743.743,0,0,0-.47.938Z" transform="translate(-188.977 -384.011)" fill="#f7f3ef" stroke="#070707" stroke-linecap="round" stroke-linejoin="round" stroke-width="2"/>
            <path id="Path_1396" data-name="Path 1396" d="M195.242,373.231a.674.674,0,1,0,.038-.514A.676.676,0,0,0,195.242,373.231Z" transform="translate(-185.036 -362.744)" fill="#f7f3ef" stroke="#070707" stroke-linecap="round" stroke-linejoin="round" stroke-width="2"/>
            <path id="Path_1397" data-name="Path 1397" d="M183.958,381.726a.7.7,0,1,0,.442-.879A.7.7,0,0,0,183.958,381.726Z" transform="translate(-176.652 -369.034)" fill="#f7f3ef" stroke="#070707" stroke-linecap="round" stroke-linejoin="round" stroke-width="2"/>
            <path id="Path_1398" data-name="Path 1398" d="M186.278,364.136a.7.7,0,1,0,.442-.879A.7.7,0,0,0,186.278,364.136Z" transform="translate(-178.376 -355.966)" fill="#f7f3ef" stroke="#070707" stroke-linecap="round" stroke-linejoin="round" stroke-width="2"/>
            <path id="Path_1399" data-name="Path 1399" d="M179.758,398.536a.7.7,0,1,0,.442-.879A.7.7,0,0,0,179.758,398.536Z" transform="translate(-173.532 -381.522)" fill="#f7f3ef" stroke="#070707" stroke-linecap="round" stroke-linejoin="round" stroke-width="2"/>
            <path id="Path_1400" data-name="Path 1400" d="M190.9,446.866a.7.7,0,1,0,.442-.879A.7.7,0,0,0,190.9,446.866Z" transform="translate(-181.808 -417.428)" fill="#f7f3ef" stroke="#070707" stroke-linecap="round" stroke-linejoin="round" stroke-width="2"/>
            <path id="Path_1401" data-name="Path 1401" d="M178.288,500.436a.7.7,0,1,0,.442-.879A.7.7,0,0,0,178.288,500.436Z" transform="translate(-172.44 -457.226)" fill="#f7f3ef" stroke="#070707" stroke-linecap="round" stroke-linejoin="round" stroke-width="2"/>
            <path id="Path_1402" data-name="Path 1402" d="M197.968,478.046a.7.7,0,1,0,.442-.879A.7.7,0,0,0,197.968,478.046Z" transform="translate(-187.061 -440.592)" fill="#f7f3ef" stroke="#070707" stroke-linecap="round" stroke-linejoin="round" stroke-width="2"/>
            <circle id="Ellipse_227" data-name="Ellipse 227" cx="0.697" cy="0.697" r="0.697" transform="translate(1.73 36.562)" fill="#f7f3ef" stroke="#070707" stroke-linecap="round" stroke-linejoin="round" stroke-width="2"/>
            <path id="Path_1403" data-name="Path 1403" d="M216.958,477.6a.7.7,0,1,0,.442-.879A.7.7,0,0,0,216.958,477.6Z" transform="translate(-201.169 -440.258)" fill="#f7f3ef" stroke="#070707" stroke-linecap="round" stroke-linejoin="round" stroke-width="2"/>
            <path id="Path_1404" data-name="Path 1404" d="M191.078,411.866a.7.7,0,1,0,.442-.879.7.7,0,0,0-.442.879Z" transform="translate(-181.942 -391.425)" fill="#f7f3ef" stroke="#070707" stroke-linecap="round" stroke-linejoin="round" stroke-width="2"/>
            <path id="Path_1405" data-name="Path 1405" d="M166.338,433.7a.7.7,0,1,0,.442-.879.7.7,0,0,0-.442.879Z" transform="translate(-163.562 -407.643)" fill="#f7f3ef" stroke="#070707" stroke-linecap="round" stroke-linejoin="round" stroke-width="2"/>
            <path id="Path_1406" data-name="Path 1406" d="M210.988,438.816a.7.7,0,1,0,.442-.879A.7.7,0,0,0,210.988,438.816Z" transform="translate(-196.733 -411.447)" fill="#f7f3ef" stroke="#070707" stroke-linecap="round" stroke-linejoin="round" stroke-width="2"/>
            <path id="Path_1407" data-name="Path 1407" d="M190.643,335.608a.465.465,0,1,0,.3-.586.465.465,0,0,0-.3.586Z" transform="translate(-181.627 -334.998)" fill="#f7f3ef" stroke="#070707" stroke-linecap="round" stroke-linejoin="round" stroke-width="2"/>
            <path id="Path_1408" data-name="Path 1408" d="M197.651,390.658a.463.463,0,1,0,.025-.354A.463.463,0,0,0,197.651,390.658Z" transform="translate(-186.833 -375.896)" fill="#f7f3ef" stroke="#070707" stroke-linecap="round" stroke-linejoin="round" stroke-width="2"/>
            <path id="Path_1409" data-name="Path 1409" d="M197.651,390.658a.463.463,0,1,0,.025-.354A.463.463,0,0,0,197.651,390.658Z" transform="translate(-186.833 -375.896)" fill="#f7f3ef" stroke="#070707" stroke-linecap="round" stroke-linejoin="round" stroke-width="2"/>
            <path id="Path_1410" data-name="Path 1410" d="M199.613,418.348a.465.465,0,1,0,.3-.586A.465.465,0,0,0,199.613,418.348Z" transform="translate(-188.291 -396.467)" fill="#f7f3ef" stroke="#070707" stroke-linecap="round" stroke-linejoin="round" stroke-width="2"/>
            <circle id="Ellipse_228" data-name="Ellipse 228" cx="0.463" cy="0.463" r="0.463" transform="translate(4.375 18.369)" fill="#f7f3ef" stroke="#070707" stroke-linecap="round" stroke-linejoin="round" stroke-width="2"/>
            <path id="Path_1411" data-name="Path 1411" d="M169.763,419.824a.463.463,0,1,0,.028-.356A.463.463,0,0,0,169.763,419.824Z" transform="translate(-166.115 -397.566)" fill="#f7f3ef" stroke="#070707" stroke-linecap="round" stroke-linejoin="round" stroke-width="2"/>
            <path id="Path_1412" data-name="Path 1412" d="M199.321,464.178a.463.463,0,1,0,.025-.354A.463.463,0,0,0,199.321,464.178Z" transform="translate(-188.074 -430.516)" fill="#f7f3ef" stroke="#070707" stroke-linecap="round" stroke-linejoin="round" stroke-width="2"/>
            <path id="Path_1413" data-name="Path 1413" d="M216.053,457.947a.465.465,0,1,0,.3-.586A.465.465,0,0,0,216.053,457.947Z" transform="translate(-200.505 -425.887)" fill="#f7f3ef" stroke="#070707" stroke-linecap="round" stroke-linejoin="round" stroke-width="2"/>
            <path id="Path_1414" data-name="Path 1414" d="M176.013,482.428a.465.465,0,1,0,.3-.586A.465.465,0,0,0,176.013,482.428Z" transform="translate(-170.758 -444.074)" fill="#f7f3ef" stroke="#070707" stroke-linecap="round" stroke-linejoin="round" stroke-width="2"/>
            <circle id="Ellipse_229" data-name="Ellipse 229" cx="0.463" cy="0.463" r="0.463" transform="matrix(0.152, -0.988, 0.988, 0.152, 9.405, 40.531)" fill="#f7f3ef" stroke="#070707" stroke-linecap="round" stroke-linejoin="round" stroke-width="2"/>
            <path id="Path_1415" data-name="Path 1415" d="M162.551,464.238a.463.463,0,1,0,.025-.354.463.463,0,0,0-.025.354Z" transform="translate(-160.756 -430.56)" fill="#f7f3ef" stroke="#070707" stroke-linecap="round" stroke-linejoin="round" stroke-width="2"/>
            <path id="Path_1416" data-name="Path 1416" d="M223.3,467.78a.463.463,0,1,0,.026-.355A.463.463,0,0,0,223.3,467.78Z" transform="translate(-205.89 -433.192)" fill="#f7f3ef" stroke="#070707" stroke-linecap="round" stroke-linejoin="round" stroke-width="2"/>
            <path id="Path_1417" data-name="Path 1417" d="M206.933,487.108a.465.465,0,1,0,.3-.586A.465.465,0,0,0,206.933,487.108Z" transform="translate(-193.73 -447.551)" fill="#f7f3ef" stroke="#070707" stroke-linecap="round" stroke-linejoin="round" stroke-width="2"/>
            <circle id="Ellipse_230" data-name="Ellipse 230" cx="0.463" cy="0.463" r="0.463" transform="matrix(0.152, -0.988, 0.988, 0.152, 11.668, 45.035)" fill="#f7f3ef" stroke="#070707" stroke-linecap="round" stroke-linejoin="round" stroke-width="2"/>
            <path id="Path_1418" data-name="Path 1418" d="M218.033,496.318a.465.465,0,1,0,.3-.586.465.465,0,0,0-.3.586Z" transform="translate(-201.976 -454.393)" fill="#f7f3ef" stroke="#070707" stroke-linecap="round" stroke-linejoin="round" stroke-width="2"/>
            <path id="Path_1419" data-name="Path 1419" d="M170.342,494.738a.463.463,0,1,0,.026-.355A.465.465,0,0,0,170.342,494.738Z" transform="translate(-166.544 -453.219)" fill="#f7f3ef" stroke="#070707" stroke-linecap="round" stroke-linejoin="round" stroke-width="2"/>
            <path id="Path_1420" data-name="Path 1420" d="M155.663,504.958a.465.465,0,1,0,.3-.586A.465.465,0,0,0,155.663,504.958Z" transform="translate(-155.64 -460.812)" fill="#f7f3ef" stroke="#070707" stroke-linecap="round" stroke-linejoin="round" stroke-width="2"/>
            <path id="Path_1421" data-name="Path 1421" d="M174.532,523.448a.463.463,0,1,0,.026-.355A.465.465,0,0,0,174.532,523.448Z" transform="translate(-169.657 -474.548)" fill="#f7f3ef" stroke="#070707" stroke-linecap="round" stroke-linejoin="round" stroke-width="2"/>
            <path id="Path_1422" data-name="Path 1422" d="M177.211,436.6a.463.463,0,1,0,.025-.354A.463.463,0,0,0,177.211,436.6Z" transform="translate(-171.648 -410.026)" fill="#f7f3ef" stroke="#070707" stroke-linecap="round" stroke-linejoin="round" stroke-width="2"/>
            <circle id="Ellipse_231" data-name="Ellipse 231" cx="0.463" cy="0.463" r="0.463" transform="translate(11.826 31.179)" fill="#f7f3ef" stroke="#070707" stroke-linecap="round" stroke-linejoin="round" stroke-width="2"/>
            <path id="Path_1423" data-name="Path 1423" d="M195.323,437.758a.465.465,0,1,0,.3-.586A.465.465,0,0,0,195.323,437.758Z" transform="translate(-185.104 -410.887)" fill="#f7f3ef" stroke="#070707" stroke-linecap="round" stroke-linejoin="round" stroke-width="2"/>
          </g>
        </g>
        <g id="HEAD" transform="translate(56.458)">
          <path id="HEAD-2" data-name="HEAD" d="M410.07,187.863c-.321-.365-.393,7.437.846,13.065,2.275,10.327,9.594,12.561,11.008,12.666,8.2.6,14.075-8.136,14.1-10.98s-.036-4.951-.036-4.951,5.627-3.237,2.915-6.463C437.179,189.148,425.284,184.174,410.07,187.863Z" transform="translate(-400.971 -158.466)" fill="#c48270" stroke="#0f0f0f" stroke-linecap="round" stroke-linejoin="round" stroke-width="2"/>
          <g id="CAP">
            <path id="Path_1424" data-name="Path 1424" d="M405.576,164.163l-1.756-7.6s13.17-6.2,31.728,3.656l-1.136,7.28S422.527,160.484,405.576,164.163Z" transform="translate(-396.477 -134.766)" fill="#f7f3ef" stroke="#070707" stroke-linecap="round" stroke-linejoin="round" stroke-width="2"/>
            <path id="Path_1425" data-name="Path 1425" d="M376.99,94.293c1.712,3.3,4.743,5.239,5.617,4.843,4.712-2.131,11.409-1.954,13.671-1.82,8.761,9.684,30.592,24.276,28.939,5.057-1.65-19.319-36.07-30.461-46.235-22.366C377.1,81.509,372.892,86.422,376.99,94.293Z" transform="translate(-375.256 -77.339)" fill="#f7f3ef" stroke="#070707" stroke-linecap="round" stroke-linejoin="round" stroke-width="2"/>
            <path id="Path_1426" data-name="Path 1426" d="M422.975,135.962c-8.543.527-19.258-7.645-25.451-14.047l-.013-.013-.141-.131c-4.568-4.3-10.144-15.006-21.08-10.882" transform="translate(-376.024 -101.575)" fill="rgba(0,0,0,0)" stroke="#070707" stroke-linecap="round" stroke-linejoin="round" stroke-width="2"/>
          </g>
          <g id="HAIR" transform="translate(4.83 26.841)">
            <path id="Path_1427" data-name="Path 1427" d="M411.332,183.355s-8,7.25-14.07,4.519c-6.769-3.041-1.005-7.843.6-5.507C400.005,185.473,404.059,182.3,411.332,183.355Z" transform="translate(-394.045 -181.747)" fill="#1c0e0c"/>
            <path id="Path_1428" data-name="Path 1428" d="M482.64,190.82a5.062,5.062,0,0,1,4.034,4.113c.949,3.784,2.959,1.771,2.959,1.771s.167-3.825,1.144-3.383A26.037,26.037,0,0,0,482.64,190.82Z" transform="translate(-459.864 -188.488)" fill="#1c0e0c"/>
          </g>
        </g>
      </g>
      <g id="COOK_S_RIGHT_HAND" data-name="COOK&apos;S RIGHT HAND" transform="translate(46.989 51.971)">
        <path id="HAND-2" data-name="HAND" d="M483.28,291.558c.123,6.036-4.321,46.788-10.558,52.333-6.378,5.656-34.045,9.5-56.061,11.44,0,0,1.866-8.666-6.471-10.1,0,0,30.224-14.1,38.214-14.846,0,0,6.64-33.829,10.9-41.456C465.9,277.1,482.932,274.745,483.28,291.558Z" transform="translate(-391.74 -279.502)" fill="#efaf00"/>
        <g id="LINES" transform="translate(31.762 11.776)">
          <path id="Path_1429" data-name="Path 1429" d="M462.2,378.8c9.131-3.537,21.875-7.969,26.284-8.381,0,0,3.37-29.394,7.627-37.019" transform="translate(-462.141 -331.32)" fill="rgba(0,0,0,0)" stroke="#000" stroke-linecap="round" stroke-linejoin="round" stroke-width="2"/>
          <path id="Path_1430" data-name="Path 1430" d="M523.949,325.31c.594,19.047-6.789,48.9-15.168,55.038-2.571,1.89-44.045,8.334-46.811,8.53" transform="translate(-461.97 -325.31)" fill="rgba(0,0,0,0)" stroke="#000" stroke-linecap="round" stroke-linejoin="round" stroke-width="2"/>
        </g>
        <path id="ARM-2" data-name="ARM" d="M363.308,545.283c-1.509,1.378-9.347,6.576-13.368,7.314-2.525.465-7.152-1.17-7.712-1.514a55.607,55.607,0,0,1-3.807-4.648,2.892,2.892,0,0,1,3.949-.1c2.666,2.257,5.234,1.121,6.9-.28.694-.584,1.522-2.17.573-2.979s-3.458,1.337-4.491,1.417c-2.1.162-2.712-.848-2.712-.848s4.231-4.113,5.075-4.73,5.828-3.548,10.283-3.483C361.554,535.478,366.8,542.085,363.308,545.283Z" transform="translate(-338.42 -469.634)" fill="#c48270" stroke="#0f0f0f" stroke-linecap="round" stroke-linejoin="round" stroke-width="2"/>
        <path id="CUFF-2" data-name="CUFF" d="M410.19,527.81l5.607-2.55s7.226,2.622,7.712,12.545l-6.846.105S415.583,530.2,410.19,527.81Z" transform="translate(-391.74 -462.081)" fill="#efaf00" stroke="#000" stroke-linecap="round" stroke-linejoin="round" stroke-width="2"/>
      </g>
      <circle id="Ellipse_232" data-name="Ellipse 232" cx="3.332" cy="3.332" r="3.332" transform="translate(88.468 31.939)" fill="#c48270"/>
      <path id="Path_1431" data-name="Path 1431" d="M504.34,210.7s1-2.926,3.057-2.774" transform="translate(-414.697 -174.349)" fill="rgba(0,0,0,0)" stroke="#070707" stroke-linecap="round" stroke-linejoin="round" stroke-width="2"/>
      <line id="Line_113" data-name="Line 113" x2="1.144" y2="0.825" transform="translate(91.057 35.048)" fill="none" stroke="#070707" stroke-linecap="round" stroke-linejoin="round" stroke-width="2"/>
      <path id="Path_1432" data-name="Path 1432" d="M437.59,220.06l-1.65,5.831,3.483,1.82" transform="translate(-363.881 -183.37)" fill="rgba(0,0,0,0)" stroke="#070707" stroke-linecap="round" stroke-linejoin="round" stroke-width="2"/>
      <ellipse id="Ellipse_233" data-name="Ellipse 233" cx="0.977" cy="1.216" rx="0.977" ry="1.216" transform="translate(77.925 35.132)" fill="#070707"/>
      <ellipse id="Ellipse_234" data-name="Ellipse 234" cx="0.977" cy="1.216" rx="0.977" ry="1.216" transform="translate(68.678 36.873)" fill="#070707"/>
      <path id="Path_1433" data-name="Path 1433" d="M446.86,255.075a5.342,5.342,0,0,0,6.532-3.435" transform="translate(-371.994 -206.831)" fill="rgba(0,0,0,0)" stroke="#0f0f0f" stroke-linecap="round" stroke-linejoin="round" stroke-width="2"/>
    </g>
  </g>
</svg>
