<svg xmlns="http://www.w3.org/2000/svg" xmlns:xlink="http://www.w3.org/1999/xlink" width="52.763" height="74.016" viewBox="0 0 52.763 74.016">
  <defs>
    <linearGradient id="linear-gradient" x1="0.499" y1="1" x2="0.499" gradientUnits="objectBoundingBox">
      <stop offset="0" stop-color="#9b756d"/>
      <stop offset="1" stop-color="#bc9388"/>
    </linearGradient>
  </defs>
  <g id="Group_161" data-name="Group 161" transform="translate(-467.995 -744.667)">
    <path id="Path_1195" data-name="Path 1195" d="M47.438,82.718c-14.194-2.579-6.846-16.545-6.846-25.97,0-10.566-15.678-16.34-10.566-31.675C31.669,19.846,35.845,13,54.1,13c15.974,0,25.1,11.41,27.385,29.667C83.631,59.9,71.422,87.008,47.438,82.718Z" transform="translate(438.994 731.667)" fill="url(#linear-gradient)"/>
    <path id="Path_1197" data-name="Path 1197" d="M42,65.166c-7.234-1.255-9.311-5.591-8.649-12.666.571,4.861,3.788,7.234,8.649,8.124,20.1,3.606,32.953-15.062,34.231-33.935C77.4,44.467,65.007,69.3,42,65.166Z" transform="translate(444.448 753.062)" fill="#8a6762"/>
    <path id="Path_1199" data-name="Path 1199" d="M66.308,33.013l-4.564,4.678-4.77-4.77,4.77-4.77c2.807,2.807,3.286,3.629,4.564,3.629a2.282,2.282,0,0,0,1.62-3.994c-3.172-3.172-3.081-2.807-2.853-3.035a2.291,2.291,0,0,0-3.241-3.241c-.228.228.137.342-3.035-2.853A2.291,2.291,0,0,0,55.56,21.9l2.967,2.944-4.77,4.77-4.77-4.77,3.537-3.514a2.291,2.291,0,0,0-3.241-3.241L45.77,21.626l-5.226-5.249A2.291,2.291,0,0,0,37.3,19.618l5.249,5.226-4.77,4.77-.662-.685A2.421,2.421,0,1,0,33.7,32.352l.685.662-1.255,1.232a2.291,2.291,0,1,0,3.241,3.241L37.6,36.231,42.369,41l-2.4,2.282a2.291,2.291,0,1,0,3.241,3.241l2.282-2.4,4.77,4.77-2.4,2.282a2.291,2.291,0,1,0,3.241,3.241l2.282-2.4,4.77,4.77-4.77,4.77-7.508-7.531a2.3,2.3,0,0,0-3.058,3.423l7.531,7.508-4.678,4.564a2.282,2.282,0,0,0,1.712,3.9c1.187,0,1.187-.228,6.276-5.34,1.415,1.438,1.757,1.917,2.853,1.917a2.282,2.282,0,0,0,1.62-3.9l-1.255-1.232,4.77-4.77c.8.8,1.232,1.346,2.282,1.346a2.282,2.282,0,0,0,1.712-3.994l-.685-.662,2.4-2.282a2.291,2.291,0,0,0-3.241-3.241l-2.282,2.4-4.77-4.77,4.77-4.77,2.282,2.4a2.291,2.291,0,1,0,3.241-3.241L64.962,41l4.678-4.564a2.388,2.388,0,1,0-3.332-3.423Zm-25.4,0,4.77-4.77,4.77,4.77-4.77,4.77ZM53.666,45.77,48.9,41l4.77-4.77L58.435,41Z" transform="translate(442.949 735.184)" fill="#8a6762"/>
  </g>
</svg>
