<svg xmlns="http://www.w3.org/2000/svg" width="23.128" height="23.129" viewBox="0 0 23.128 23.129">
  <path id="Icon_ionic-ios-person" data-name="Icon ionic-ios-person" d="M27.617,27.045c-.434-1.915-2.909-2.849-3.764-3.15a28.066,28.066,0,0,0-3.138-.6,3.188,3.188,0,0,1-1.452-.669,12.686,12.686,0,0,1-.1-2.969,8.934,8.934,0,0,0,.687-1.307,16.858,16.858,0,0,0,.506-2.283s.494,0,.669-.867a8.534,8.534,0,0,0,.446-2.018c-.036-.693-.416-.675-.416-.675a10.56,10.56,0,0,0,.41-3.09c.054-2.476-1.885-4.915-5.4-4.915-3.56,0-5.457,2.439-5.4,4.915a11.015,11.015,0,0,0,.4,3.09s-.379-.018-.416.675A8.534,8.534,0,0,0,11.1,15.2c.169.867.669.867.669.867a16.859,16.859,0,0,0,.506,2.283,8.934,8.934,0,0,0,.687,1.307,12.686,12.686,0,0,1-.1,2.969,3.188,3.188,0,0,1-1.452.669,28.067,28.067,0,0,0-3.138.6c-.855.3-3.331,1.235-3.764,3.15a.482.482,0,0,0,.476.584H27.147A.48.48,0,0,0,27.617,27.045Z" transform="translate(-4.501 -4.5)"/>
</svg>
