<svg xmlns="http://www.w3.org/2000/svg" width="21.132" height="21.125" viewBox="0 0 21.132 21.125">
  <g id="Icon_ionic-ios-home" data-name="Icon ionic-ios-home" transform="translate(-3.374 -3.375)">
    <path id="Path_356" data-name="Path 356" d="M15,7.3a.2.2,0,0,0-.254,0L6.826,13.639a.213.213,0,0,0-.076.157v11.68a.1.1,0,0,0,.1.1h5.484a.1.1,0,0,0,.1-.1V18.367a.1.1,0,0,1,.1-.1h4.672a.1.1,0,0,1,.1.1v7.109a.1.1,0,0,0,.1.1H22.9a.1.1,0,0,0,.1-.1V13.8a.205.205,0,0,0-.076-.157Z" transform="translate(-0.938 -1.078)" fill="#e57b07"/>
    <path id="Path_357" data-name="Path 357" d="M24.231,11.307l-9.6-7.688a1.115,1.115,0,0,0-1.391,0l-4.179,3.4V4.873a.1.1,0,0,0-.1-.1H5.914a.1.1,0,0,0-.1.1V9.555L3.644,11.338A.711.711,0,0,0,3.583,12.4a.706.706,0,0,0,.5.208.716.716,0,0,0,.447-.157l9.339-7.516a.091.091,0,0,1,.066-.02.123.123,0,0,1,.066.02l9.339,7.485a.716.716,0,0,0,.447.157.721.721,0,0,0,.716-.752A.722.722,0,0,0,24.231,11.307Z" transform="translate(0)" fill="#e57b07"/>
  </g>
</svg>
