<svg xmlns="http://www.w3.org/2000/svg" width="19.311" height="22.887" viewBox="0 0 19.311 22.887">
  <path id="Icon_metro-spoon-fork" data-name="Icon metro-spoon-fork" d="M7.826,1.928c-2.37,0-4.291,2.242-4.291,5.007a4.912,4.912,0,0,0,3.3,4.872l-.71,11.581a1.332,1.332,0,0,0,1.343,1.428h.715a1.332,1.332,0,0,0,1.343-1.428l-.71-11.581a4.912,4.912,0,0,0,3.3-4.872c0-2.765-1.921-5.007-4.291-5.007Zm14.424,0L21.058,9.08h-.894l-.6-7.152h-.6l-.6,7.152h-.894L16.29,1.928h-.6v9.3a.715.715,0,0,0,.715.715h1.863l-.7,11.446a1.332,1.332,0,0,0,1.343,1.428h.715a1.332,1.332,0,0,0,1.343-1.428l-.7-11.446h1.863a.715.715,0,0,0,.715-.715v-9.3Z" transform="translate(-3.535 -1.928)" fill="#e57b07"/>
</svg>
