<svg xmlns="http://www.w3.org/2000/svg" width="26.008" height="26.014" viewBox="0 0 26.008 26.014">
  <path id="Icon_ionic-ios-settings" data-name="Icon ionic-ios-settings" d="M28.361,17.5a3.347,3.347,0,0,1,2.147-3.122A13.266,13.266,0,0,0,28.9,10.514a3.392,3.392,0,0,1-1.361.291,3.339,3.339,0,0,1-3.055-4.7A13.225,13.225,0,0,0,20.626,4.5a3.344,3.344,0,0,1-6.245,0,13.266,13.266,0,0,0-3.867,1.605,3.339,3.339,0,0,1-3.055,4.7A3.281,3.281,0,0,1,6.1,10.514a13.559,13.559,0,0,0-1.6,3.874,3.346,3.346,0,0,1,.007,6.245A13.266,13.266,0,0,0,6.112,24.5a3.341,3.341,0,0,1,4.409,4.409,13.343,13.343,0,0,0,3.867,1.605,3.338,3.338,0,0,1,6.231,0,13.266,13.266,0,0,0,3.867-1.605A3.344,3.344,0,0,1,28.9,24.5,13.343,13.343,0,0,0,30.5,20.633,3.363,3.363,0,0,1,28.361,17.5Zm-10.8,5.411A5.418,5.418,0,1,1,22.983,17.5,5.417,5.417,0,0,1,17.565,22.915Z" transform="translate(-4.5 -4.5)" fill="#e57b07"/>
</svg>
